# xmcd
#
# Track frame offsets: 
#        150
#        23979
#        47698
#        70905
#        92893
#        122056
#        142346
#        168045
#        191875
#
# Disc length: 2820 seconds
#
# Revision: 0
# Processed by: cddbd v1.5.2PL0 Copyright (c) Steve Scherf et al.
# Submitted via: ExactAudioCopy v1.0b1
#
DISCID=820b0209
DTITLE=Hạ Vân - Người ơi hãy về
DYEAR=1900
DGENRE=
TTITLE0=Chân Quê
TTITLE1=Em yêu anh như yêu câu hò ví dặm
TTITLE2=Chuyện tình lá diêu bông
TTITLE3=Người ơi hãy về
TTITLE4=Trăng khuyết
TTITLE5=Lả lơi chèo
TTITLE6=Mưa xuân
TTITLE7=Nhớ quê
TTITLE8=Bến vắng mưa rơi
EXTD=
EXTT0=Chân Quê\nThơ: Nguyễn Bính-Nhạc: Trung Đức
EXTT1=
EXTT2=
EXTT3=
EXTT4=
EXTT5=
EXTT6=
EXTT7=
EXTT8=
PLAYORDER=
